<svg width="80" height="92" viewBox="0 0 80 92" fill="none" xmlns="http://www.w3.org/2000/svg">
<path d="M40 0.6875C29.6435 0.698873 19.7144 4.81803 12.3912 12.1412C5.06803 19.4644 0.948873 29.3935 0.9375 39.75C0.9375 49.4609 5.96094 61.9375 14.3789 73.125C17.5898 77.3906 28.9219 91.3125 40 91.3125C51.0781 91.3125 62.4102 77.3906 65.6211 73.125C74.0391 61.9375 79.0625 49.4609 79.0625 39.75C79.0511 29.3935 74.932 19.4644 67.6088 12.1412C60.2856 4.81803 50.3565 0.698873 40 0.6875ZM58.1289 67.4844C52.7266 74.6641 44.7656 81.9375 40 81.9375C35.2344 81.9375 27.2734 74.668 21.8711 67.4844C14.7422 58.0117 10.3125 47.3828 10.3125 39.75C10.3125 31.8764 13.4403 24.3253 19.0078 18.7578C24.5753 13.1903 32.1264 10.0625 40 10.0625C47.8736 10.0625 55.4247 13.1903 60.9922 18.7578C66.5597 24.3253 69.6875 31.8764 69.6875 39.75C69.6875 47.3828 65.2578 58.0117 58.1289 67.4844ZM30.625 53.8125C26.8954 53.8125 23.3185 52.3309 20.6813 49.6937C18.0441 47.0565 16.5625 43.4796 16.5625 39.75C16.5625 38.5068 17.0564 37.3145 17.9354 36.4354C18.8145 35.5564 20.0068 35.0625 21.25 35.0625C24.9796 35.0625 28.5565 36.5441 31.1937 39.1813C33.8309 41.8185 35.3125 45.3954 35.3125 49.125C35.3125 50.3682 34.8186 51.5605 33.9396 52.4396C33.0605 53.3186 31.8682 53.8125 30.625 53.8125ZM63.4375 39.75C63.4375 43.4796 61.9559 47.0565 59.3187 49.6937C56.6815 52.3309 53.1046 53.8125 49.375 53.8125C48.1318 53.8125 46.9395 53.3186 46.0604 52.4396C45.1814 51.5605 44.6875 50.3682 44.6875 49.125C44.6875 45.3954 46.1691 41.8185 48.8063 39.1813C51.4435 36.5441 55.0204 35.0625 58.75 35.0625C59.9932 35.0625 61.1855 35.5564 62.0646 36.4354C62.9436 37.3145 63.4375 38.5068 63.4375 39.75ZM49.375 67.875C49.375 69.1182 48.8811 70.3105 48.0021 71.1896C47.123 72.0686 45.9307 72.5625 44.6875 72.5625H35.3125C34.0693 72.5625 32.877 72.0686 31.9979 71.1896C31.1189 70.3105 30.625 69.1182 30.625 67.875C30.625 66.6318 31.1189 65.4395 31.9979 64.5604C32.877 63.6814 34.0693 63.1875 35.3125 63.1875H44.6875C45.9307 63.1875 47.123 63.6814 48.0021 64.5604C48.8811 65.4395 49.375 66.6318 49.375 67.875Z" fill="#F8F8F8"/>
</svg>
