<svg width="76" height="68" viewBox="0 0 76 68" fill="none" xmlns="http://www.w3.org/2000/svg">
<path d="M8.83333 25.8333L15.0833 7.08333H60.9167L67.1667 25.8333M60.9167 46.6667C59.2591 46.6667 57.6694 46.0082 56.4973 44.8361C55.3251 43.664 54.6667 42.0743 54.6667 40.4167C54.6667 38.7591 55.3251 37.1693 56.4973 35.9972C57.6694 34.8251 59.2591 34.1667 60.9167 34.1667C62.5743 34.1667 64.164 34.8251 65.3361 35.9972C66.5082 37.1693 67.1667 38.7591 67.1667 40.4167C67.1667 42.0743 66.5082 43.664 65.3361 44.8361C64.164 46.0082 62.5743 46.6667 60.9167 46.6667ZM15.0833 46.6667C13.4257 46.6667 11.836 46.0082 10.6639 44.8361C9.49181 43.664 8.83333 42.0743 8.83333 40.4167C8.83333 38.7591 9.49181 37.1693 10.6639 35.9972C11.836 34.8251 13.4257 34.1667 15.0833 34.1667C16.7409 34.1667 18.3306 34.8251 19.5028 35.9972C20.6749 37.1693 21.3333 38.7591 21.3333 40.4167C21.3333 42.0743 20.6749 43.664 19.5028 44.8361C18.3306 46.0082 16.7409 46.6667 15.0833 46.6667ZM66.8333 4.99999C66 2.58333 63.6667 0.833328 60.9167 0.833328H15.0833C12.3333 0.833328 10 2.58333 9.16667 4.99999L0.5 30V63.3333C0.5 64.4384 0.938987 65.4982 1.72039 66.2796C2.50179 67.061 3.5616 67.5 4.66667 67.5H8.83333C9.9384 67.5 10.9982 67.061 11.7796 66.2796C12.561 65.4982 13 64.4384 13 63.3333V59.1667H63V63.3333C63 64.4384 63.439 65.4982 64.2204 66.2796C65.0018 67.061 66.0616 67.5 67.1667 67.5H71.3333C72.4384 67.5 73.4982 67.061 74.2796 66.2796C75.061 65.4982 75.5 64.4384 75.5 63.3333V30L66.8333 4.99999Z" fill="#F8F8F8"/>
</svg>
