<svg width="92" height="94" viewBox="0 0 92 94" fill="none" xmlns="http://www.w3.org/2000/svg">
<path d="M46 0.710939C36.8002 0.722462 25.6152 1.00664 19.6764 7.56211C15.9123 11.8689 15.3574 19.152 15.352 25.443C15.3494 28.4215 15.5258 31.1693 15.7113 33.2613C16.3793 33.6764 17.0326 34.0422 17.6973 34.3371C18.0695 33.1236 18.5152 31.9563 19.0428 30.8502C18.9238 29.0514 18.8653 27.249 18.8676 25.4463C18.8684 24.6334 18.8891 23.8063 18.9279 22.9766H21V19.4609H19.2143C19.3214 18.5448 19.4608 17.6328 19.6324 16.7266H24.125V13.2109H20.5461C21.0246 11.8408 21.6129 10.6887 22.3236 9.87539C28.3442 4.28555 36.1584 4.25879 43.4621 4.23008L46 11.8438L48.5379 4.23008C55.6518 4.2625 65.0992 4.82656 69.6764 9.87539C70.3871 10.6887 70.9756 11.8408 71.4539 13.2109H67.875V16.7266H72.3676C72.536 17.6074 72.6748 18.524 72.7856 19.4609H71V22.9766H73.0723C73.1108 23.8063 73.1317 24.6334 73.1324 25.4463C73.1347 27.249 73.0762 29.0512 72.9572 30.85C73.4848 31.9563 73.9305 33.1234 74.3029 34.3371C74.9674 34.0422 75.6209 33.6764 76.2887 33.2613C76.4742 31.1693 76.6506 28.4215 76.6481 25.443C76.6426 19.152 76.0877 11.8689 72.3238 7.56211C64.8213 0.403321 55.2502 0.708009 46 0.710939ZM28.0934 25.8861C21.9715 29.2334 19.6328 37.1455 19.6328 46.2188V55.5938C20.1961 61.4383 25.5024 63.909 29.0078 67.3654V83.7188C29.0078 84.6826 29.4672 85.5645 30.5215 86.5234C34.5121 89.6359 40.9178 91.3027 45.9922 91.3359H46C51.5385 90.6668 57.3926 90.2441 61.5068 86.5287C62.5397 85.5752 62.9922 84.6953 62.9922 83.7188V67.3654C66.5479 63.7521 72.2768 60.5885 72.3672 55.5938V46.2188C72.3672 37.1455 70.0285 29.2334 63.9067 25.8859C61.6135 24.632 59.0039 24.5938 56.0442 25.3039C52.2426 26.4002 49.143 27.8633 46 29.4342C42.643 27.8861 39.1508 26.0988 35.9559 25.3039C33.2803 24.6602 30.4422 24.6287 28.0934 25.8859V25.8861ZM7.22618 32.5889C7.5795 37.0385 8.97755 43.5273 10.9274 48.7266C12.0598 51.7463 13.4002 54.3533 14.6356 55.8356C15.2531 56.5768 15.833 57.0098 15.9963 56.8375C16.1594 56.665 16.1172 56.1391 16.1172 55.5938V46.2188C16.1172 43.3438 16.3395 40.4879 16.8531 37.7799C15.0945 37.0998 13.5836 36.0955 12.2125 35.1813C10.469 34.0191 8.93986 33.0242 7.22618 32.5889ZM84.7736 32.5889C83.0602 33.0244 81.5311 34.0189 79.7875 35.1813C78.4164 36.0953 76.9055 37.0998 75.1469 37.7799C75.6606 40.4879 75.8828 43.3439 75.8828 46.2188V55.5938C75.8828 56.1391 75.8406 56.665 76.0039 56.8373C76.167 57.0098 76.7469 56.5768 77.3645 55.8356C78.5998 54.3531 79.9402 51.7463 81.0727 48.7266C83.0225 43.5273 84.4205 37.0387 84.7738 32.5889H84.7736ZM30.375 37.4824L44.1178 51.2258L42.1022 53.2414C42.5854 54.1076 42.875 54.9229 42.875 55.5938H24.125C24.125 52.4688 27.25 46.2188 33.5 46.2188C33.7309 46.2188 33.9805 46.2566 34.2416 46.3209L30.375 42.4545L25.3678 47.4615L22.8822 44.976L30.375 37.4824ZM33.5 55.5938C35.226 55.5938 36.625 54.1947 36.625 52.4688C36.625 50.7428 35.226 49.3438 33.5 49.3438C31.774 49.3438 30.375 50.7428 30.375 52.4688C30.375 54.1947 31.774 55.5938 33.5 55.5938ZM61.625 37.4826L69.1178 44.976L66.6322 47.4615L61.625 42.4545L57.7584 46.3209C58.0195 46.2564 58.2692 46.2188 58.5 46.2188C64.75 46.2188 67.875 52.4688 67.875 55.5938H49.125C49.125 54.9229 49.4147 54.1076 49.8979 53.2416L47.8822 51.226L61.625 37.4826ZM58.5 55.5938C60.226 55.5938 61.625 54.1947 61.625 52.4688C61.625 50.7428 60.226 49.3438 58.5 49.3438C56.774 49.3438 55.375 50.7428 55.375 52.4688C55.375 54.1947 56.774 55.5938 58.5 55.5938ZM18.7748 62.7219C13.2832 64.8988 7.2631 67.6555 0.449036 70.9979C8.15997 74.1279 14.1209 78.3361 18.0451 82.9738C20.8699 86.3121 22.6506 89.9293 23.1717 93.4844H36.9629C33.8156 92.5443 30.432 91.1541 28.1561 89.1242C26.6289 87.7355 25.4922 85.8799 25.4922 83.7188V68.8746C22.9883 66.6217 20.6731 65.1047 18.7748 62.7219ZM73.2252 62.7219C71.3613 65.1201 68.6809 66.9324 66.5078 68.8746V83.7188C66.5078 85.8672 65.3979 87.7217 63.8916 89.1119C61.1528 91.3727 58.2381 92.5934 55.1123 93.4844H68.8283C69.3492 89.9293 71.1301 86.3121 73.9549 82.9738C77.8791 78.3361 83.8402 74.1281 91.551 70.9979C84.7367 67.6553 78.717 64.8988 73.2252 62.7219ZM40.8455 63.5943C42.3324 64.5123 44.0762 66.2367 46 66.3359C48.0084 65.8111 49.5016 64.8664 51.1543 63.5943L53.3457 66.3432C51.2729 67.8414 48.334 69.8082 46 69.8516C43.1035 69.55 40.8777 68.0822 38.6543 66.3432L40.8455 63.5943ZM34.7336 73.0914L37.3926 75.7109H54.6647L57.2526 73.1051L59.7475 75.5824L56.1279 79.2266H54.7891L52.25 86.8438L49.711 79.2266H42.2891L39.75 86.8438L37.211 79.2266H35.9518L32.2662 75.5961L34.7336 73.0914Z" fill="#F8F8F8"/>
</svg>
