<svg width="76" height="88" viewBox="0 0 76 88" fill="none" xmlns="http://www.w3.org/2000/svg">
<path d="M75.5 0.166672V50.1667C75.4991 56.7235 73.779 63.1654 70.5113 68.8499C67.2436 74.5344 62.5426 79.2629 56.8772 82.5635C51.2117 85.8641 44.7799 87.6216 38.2232 87.6606C31.6666 87.6997 25.2143 86.0189 19.5099 82.7859C13.8056 79.553 9.0486 74.8809 5.71349 69.2357C2.37839 63.5904 0.581724 57.1694 0.502723 50.6131C0.423722 44.0568 2.06514 37.5944 5.26326 31.8704C8.46137 26.1465 13.1044 21.3611 18.7292 17.9917L46.3333 2.05417V13.5958L75.5 0.166672ZM38 29.3333C32.4747 29.3333 27.1756 31.5283 23.2686 35.4353C19.3616 39.3423 17.1667 44.6413 17.1667 50.1667C17.1667 55.692 19.3616 60.9911 23.2686 64.8981C27.1756 68.8051 32.4747 71 38 71C43.5253 71 48.8244 68.8051 52.7314 64.8981C56.6384 60.9911 58.8333 55.692 58.8333 50.1667C58.8333 44.6413 56.6384 39.3423 52.7314 35.4353C48.8244 31.5283 43.5253 29.3333 38 29.3333Z" fill="#F8F8F8"/>
</svg>
