<svg width="92" height="92" viewBox="0 0 92 92" fill="none" xmlns="http://www.w3.org/2000/svg">
<path d="M71.25 91.8333H78.1667C81.6667 91.8333 84.5417 89.125 84.9583 85.7083L91.8333 17.0417H71V0.166672H62.7917V17.0417H42.0833L43.3333 26.7917C50.4583 28.75 57.125 32.2917 61.125 36.2083C67.125 42.125 71.25 48.25 71.25 58.25V91.8333ZM0.166656 87.6667V83.5H62.7917V87.6667C62.7917 89.9167 60.9167 91.8333 58.5 91.8333H4.33332C2.04166 91.8333 0.166656 89.9167 0.166656 87.6667ZM62.7917 58.5C62.7917 25.1667 0.166656 25.1667 0.166656 58.5H62.7917ZM0.166656 66.8333H62.6667V75.1667H0.166656V66.8333Z" fill="#F8F8F8"/>
</svg>
