<svg width="93" height="89" viewBox="0 0 93 89" fill="none" xmlns="http://www.w3.org/2000/svg">
<path d="M90.7266 37.082L65.9336 12.1133C58.6023 4.79712 48.6679 0.688217 38.3106 0.688217C27.9532 0.688217 18.0189 4.79712 10.6875 12.1133L10.6367 12.168L5.25392 17.7227C4.38886 18.6157 3.91398 19.8158 3.93376 21.0589C3.95354 22.3021 4.46635 23.4865 5.35938 24.3516C6.25242 25.2166 7.45252 25.6915 8.69568 25.6717C9.93884 25.6519 11.1232 25.1391 11.9883 24.2461L17.3438 18.7187C19.1167 16.9463 21.108 15.4066 23.2695 14.1367L39.4844 30.375L3.09767 66.7656C2.37187 67.4911 1.79613 68.3525 1.40331 69.3006C1.0105 70.2486 0.808319 71.2648 0.808319 72.291C0.808319 73.3172 1.0105 74.3334 1.40331 75.2815C1.79613 76.2295 2.37187 77.0909 3.09767 77.8164L11.1797 85.8984C12.6448 87.3631 14.6315 88.1858 16.7031 88.1858C18.7747 88.1858 20.7615 87.3631 22.2266 85.8984L58.625 49.5156L59.2149 50.1055L68.4531 59.3477C69.1786 60.0734 70.04 60.6492 70.9881 61.042C71.9361 61.4348 72.9523 61.637 73.9785 61.637C75.0047 61.637 76.0209 61.4348 76.969 61.042C77.917 60.6492 78.7784 60.0734 79.5039 59.3477L90.7109 48.1367C91.4384 47.4122 92.0158 46.5514 92.4103 45.6035C92.8048 44.6556 93.0086 43.6393 93.0101 42.6126C93.0115 41.5859 92.8106 40.569 92.4188 39.62C92.027 38.6711 91.4519 37.8086 90.7266 37.082ZM16.7031 78.1641L10.8438 72.3047L35.1875 47.9531L41.0469 53.8125L16.7031 78.1641ZM47.6875 47.1719L41.8281 41.3125L49.4492 33.6914C49.8862 33.2559 50.233 32.7384 50.4696 32.1687C50.7061 31.5989 50.8279 30.988 50.8279 30.3711C50.8279 29.7541 50.7061 29.1433 50.4696 28.5735C50.233 28.0037 49.8862 27.4863 49.4492 27.0508L32.9375 10.5469C37.6648 9.67325 42.5337 9.96165 47.1248 11.3872C51.716 12.8128 55.8919 15.3329 59.293 18.7305L71.5742 31.1016L62.5313 40.1406L61.9414 39.5508C61.5059 39.1138 60.9885 38.767 60.4187 38.5305C59.8489 38.2939 59.238 38.1721 58.6211 38.1721C58.0042 38.1721 57.3933 38.2939 56.8235 38.5305C56.2537 38.767 55.7363 39.1138 55.3008 39.5508L47.6875 47.1719ZM73.9844 51.5898L69.1719 46.7812L78.1914 37.7617L82.9961 42.6016L73.9844 51.5898Z" fill="#F8F8F8"/>
</svg>
