<svg width="89" height="82" viewBox="0 0 89 82" fill="none" xmlns="http://www.w3.org/2000/svg">
<path d="M88.4062 0.8125H59.6875L58.2562 2.25V59.2L59.2875 66.6688H58.1562V67.4313H57.1968V66.475H55.2906V67.2375H54.3156V66.0906H52.8V67.0469H49.3437L43.0312 65.9V63.025H45.7094L46.6531 58.4312H55.175C55.4568 58.4312 55.727 58.3193 55.9263 58.1201C56.1255 57.9208 56.2375 57.6505 56.2375 57.3688V15.4625C56.2379 15.3231 56.2107 15.1851 56.1573 15.0563C56.104 14.9276 56.0257 14.8107 55.9268 14.7125C55.828 14.6142 55.7107 14.5366 55.5816 14.484C55.4525 14.4314 55.3143 14.405 55.175 14.4062H1.96873C1.68884 14.4071 1.42066 14.5186 1.22275 14.7165C1.02485 14.9144 0.9133 15.1826 0.912476 15.4625V57.375C0.912476 57.9594 1.38748 58.4375 1.97498 58.4375H11.3969L12.0219 63.0312H16.4219L5.79685 73.6563L3.59373 78.3438C3.59373 78.3438 12.7812 81.7906 24.4625 81.7906C36.1406 81.7906 54.7125 79.1125 57.2 79.1125H72.325V75.2812L71.8968 71.9469H77.3468C76.7218 72.2781 76.3468 72.7094 76.3468 73.1844V76.2406C76.3468 77.3031 78.2312 78.1562 80.5656 78.1562C82.8875 78.1562 84.7843 77.3125 84.7843 76.2438V73.1813C84.7843 72.125 82.8937 71.275 80.5656 71.275C79.9812 71.275 79.4312 71.3375 78.9281 71.4313V70.9H71.7719L71.6 69.5469H88.4218L88.4062 0.8125ZM4.7406 54.0313V18.2312H51.8344V54.0313H4.7406Z" fill="#F8F8F8"/>
</svg>
