<svg width="78" height="76" viewBox="0 0 78 76" fill="none" xmlns="http://www.w3.org/2000/svg">
<path d="M74.2917 17.3333C72.875 18.75 71.5 20.125 71.4583 21.5C71.3333 22.8333 72.75 24.2083 74.0833 25.5C76.0833 27.5833 78.0417 29.4583 77.9583 31.5C77.875 33.5417 75.75 35.6667 73.625 37.75L56.4167 55L50.5 49.0833L68.2083 31.4167L64.2083 27.4167L58.2917 33.2917L42.6667 17.6667L58.6667 1.70834C60.2917 0.0833359 63 0.0833359 64.5417 1.70834L74.2917 11.4583C75.9167 13 75.9167 15.7083 74.2917 17.3333ZM0.5 59.875L40.3333 20L55.9583 35.625L16.125 75.5H0.5V59.875Z" fill="#F8F8F8"/>
</svg>
