<svg width="88" height="88" viewBox="0 0 88 88" fill="none" xmlns="http://www.w3.org/2000/svg">
<path d="M85.7813 40.0938L56.5 25.25V12.75C56.5 9.43479 55.183 6.25537 52.8388 3.91117C50.4946 1.56696 47.3152 0.25 44 0.25C40.6848 0.25 37.5054 1.56696 35.1612 3.91117C32.817 6.25537 31.5 9.43479 31.5 12.75V25.25L2.21875 40.0938C1.6373 40.3253 1.13877 40.7262 0.787754 41.2443C0.436735 41.7625 0.249396 42.3741 0.250001 43V58.625C0.250001 59.4538 0.579241 60.2487 1.16529 60.8347C1.75134 61.4208 2.5462 61.75 3.375 61.75C3.68314 61.7429 3.98853 61.6902 4.28125 61.5938L31.5 50.25V65.875L20.7188 71.25C20.1986 71.5121 19.7621 71.9143 19.4584 72.4112C19.1547 72.9082 18.9959 73.4801 19 74.0625V84.625C19 85.4538 19.3292 86.2487 19.9153 86.8347C20.5013 87.4208 21.2962 87.75 22.125 87.75C22.4149 87.7957 22.7101 87.7957 23 87.75L44 81.5L65 87.75C65.2899 87.7957 65.5851 87.7957 65.875 87.75C66.7038 87.75 67.4987 87.4208 68.0847 86.8347C68.6708 86.2487 69 85.4538 69 84.625V74.0625C69.0041 73.4801 68.8453 72.9082 68.5416 72.4112C68.2379 71.9143 67.8014 71.5121 67.2813 71.25L56.5 65.875V50.25L83.7187 61.5313C84.0115 61.6277 84.3169 61.6804 84.625 61.6875C85.4538 61.6875 86.2487 61.3583 86.8347 60.7722C87.4208 60.1862 87.75 59.3913 87.75 58.5625V42.9375C87.7382 42.3223 87.5451 41.7243 87.1949 41.2184C86.8447 40.7125 86.3529 40.3213 85.7813 40.0938ZM81.5 53.8438L50.25 40.875V69.75L62.75 76V80.4688L44 75L25.25 80.4688V76L37.75 69.75V40.875L6.5 53.8438V44.9375L37.75 29.0938V12.75C37.75 11.0924 38.4085 9.50269 39.5806 8.33058C40.7527 7.15848 42.3424 6.5 44 6.5C45.6576 6.5 47.2473 7.15848 48.4194 8.33058C49.5915 9.50269 50.25 11.0924 50.25 12.75V29.0938L81.5 44.9375V53.8438Z" fill="#F8F8F8"/>
</svg>
