<svg width="89" height="84" viewBox="0 0 89 84" fill="none" xmlns="http://www.w3.org/2000/svg">
<path d="M88.8333 9.08334V1.58334L81.3333 0.750002C80.9167 0.750002 78.4167 0.333336 74.25 0.333336C57.1667 0.333336 44.6667 5.33334 37.5833 14.0833C32.1667 10.75 24.6667 8.66667 15.9167 8.66667C11.75 8.66667 8.83332 9.08334 8.83332 9.08334L0.916656 10.3333L1.33332 17.4167C1.74999 29.9167 7.99999 53.6667 29.6667 53.6667H30.5V67.8333C14.6667 69.9167 1.33332 75.3333 1.33332 75.3333V83.6667H84.6667V75.3333C84.6667 75.3333 71.3333 69.9167 55.5 67.8333V54.5C81.75 54.0833 88.8333 24.5 88.8333 9.08334ZM43 67H38.8333V43.6667C38.8333 43.6667 38 29.5 26.3333 29.5C26.3333 29.5 32.5833 32.8333 34.25 44.9167C32.5833 45.3333 30.9167 45.3333 29.6667 45.3333C10.5 45.3333 9.66666 17.4167 9.66666 17.4167C9.66666 17.4167 12.1667 17 15.9167 17C23.8333 17 36.75 18.6667 40.5 29.9167C42.5833 11.1667 63.8333 8.66667 74.25 8.66667C78 8.66667 80.5 9.08334 80.5 9.08334C80.5 9.08334 80.5 46.5833 54.25 46.5833H51.3333C51.3333 38.25 59.6667 25.75 59.6667 25.75C47.1667 29.9167 47.1667 46.1667 47.1667 46.1667V67H43Z" fill="#F8F8F8"/>
</svg>
