<svg width="240" height="193" viewBox="0 0 240 193" fill="none" xmlns="http://www.w3.org/2000/svg">
<path d="M237.11 29.68C229.46 16.49 209.27 13.52 178.61 21.02C164.416 10.0444 147.427 3.26977 129.575 1.46566C111.724 -0.338448 93.7235 2.90031 77.62 10.814C61.5166 18.7277 47.9555 30.9991 38.4771 46.2341C28.9987 61.4692 23.9831 79.0571 24 97C24.0013 101.116 24.2618 105.227 24.78 109.31C-2.90999 138 -2.50999 155 2.90001 164.32C8.00001 173.16 18.64 177 32.64 177C42.3602 176.799 52.0231 175.456 61.43 173C75.6261 183.965 92.6122 190.73 110.46 192.527C128.307 194.324 146.301 191.081 162.398 183.166C178.495 175.252 192.05 162.982 201.525 147.751C211 132.52 216.015 114.938 216 97C216.002 92.9045 215.745 88.813 215.23 84.75C227.73 71.75 236.05 59.4 238.88 48.83C240.83 41.51 240.24 35.07 237.11 29.68ZM120 17C138.119 17.0186 155.697 23.1793 169.864 34.4763C184.031 45.7733 193.949 61.5392 198 79.2C180.94 95.26 157.85 111.73 135.93 124.33C108.38 140.14 84.48 150 65.42 155.4C53.6807 144.451 45.5097 130.222 41.9706 114.564C38.4316 98.9064 39.6884 82.546 45.5776 67.6127C51.4668 52.6793 61.7154 39.8649 74.9893 30.8377C88.2632 21.8105 103.947 16.9887 120 17ZM16.74 156.29C15.28 153.78 16.09 149.05 18.96 143.29C21.7981 137.893 25.251 132.843 29.25 128.24C33.214 139.725 39.3221 150.353 47.25 159.56C30 162.46 19.24 160.61 16.74 156.29ZM120 177C106.511 177.014 93.2412 173.593 81.44 167.06C103.101 159.399 124.001 149.737 143.87 138.2C165.45 125.81 184.55 112.38 199.94 99.12C199.37 119.952 190.701 139.74 175.774 154.282C160.847 168.824 140.839 176.974 120 177ZM223.42 44.69C221.72 51 217.23 58.22 210.79 65.82C206.836 54.3213 200.727 43.6814 192.79 34.47C207 32.12 220.16 32.3 223.29 37.71C224.19 39.28 224.24 41.63 223.42 44.69Z" fill="white"/>
</svg>
