<svg width="88" height="88" viewBox="0 0 88 88" fill="none" xmlns="http://www.w3.org/2000/svg">
<path d="M27.25 15.3333L16.8333 21.1667L22.6667 10.75L16.8333 0.333328L27.25 6.16666L37.6667 0.333328L31.8333 10.75L37.6667 21.1667L27.25 15.3333ZM77.25 56.1667L87.6667 50.3333L81.8333 60.75L87.6667 71.1667L77.25 65.3333L66.8333 71.1667L72.6667 60.75L66.8333 50.3333L77.25 56.1667ZM87.6667 0.333328L81.8333 10.75L87.6667 21.1667L77.25 15.3333L66.8333 21.1667L72.6667 10.75L66.8333 0.333328L77.25 6.16666L87.6667 0.333328ZM51.5833 45.25L61.75 35.0833L52.9167 26.25L42.75 36.4167L51.5833 45.25ZM55.875 22.375L65.625 32.125C67.25 33.6667 67.25 36.375 65.625 38L17 86.625C15.375 88.25 12.6667 88.25 11.125 86.625L1.375 76.875C-0.25 75.3333 -0.25 72.625 1.375 71L50 22.375C51.625 20.75 54.3333 20.75 55.875 22.375Z" fill="#F8F8F8"/>
</svg>
