<svg width="76" height="84" viewBox="0 0 76 84" fill="none" xmlns="http://www.w3.org/2000/svg">
<path d="M75.5 83.6667H0.5V75.3333H75.5V83.6667ZM67.1667 71.1667H8.83333L34.25 2.83333C35.0833 1.16666 36.3333 0.333328 38 0.333328L63 12.8333H45.9167L67.1667 71.1667ZM29.6667 23.25L34 25.2083L35.9167 29.5L37.875 25.2083L42.1667 23.25L37.875 21.2917L35.9167 17L34 21.2917L29.6667 23.25ZM42.1667 54.5L33.5833 50.625L29.6667 42L25.7917 50.625L17.1667 54.5L25.7917 58.375L29.6667 67L33.5833 58.375L42.1667 54.5ZM46.2083 41.875L50.5 39.9167L46.2083 37.9583L44.25 33.6667L42.3333 37.9583L38 39.9167L42.3333 41.875L44.25 46.1667L46.2083 41.875ZM54.5417 58.5417L58.8333 56.5833L54.5417 54.625L52.5833 50.3333L50.6667 54.625L46.3333 56.5833L50.6667 58.5417L52.5833 62.8333L54.5417 58.5417Z" fill="#F8F8F8"/>
</svg>
